# xmcd CD database file
# Copyright (C) 1997 Ti Kan
# 
# Track frame offsets:
#     182
#     14017
#     33855
#     47895
#     63270
#     78192
#     97982
#     112615
#     126105
#     140292
#     158512
#     168032
# 
# Disc length: 2555 seconds
# 
# Revision: 1
# Processed by: cddbd v1.4b41PL1 Copyright (c) Steve Scherf et al.
# Submitted via: DiscPlay 4.0.3
# 
DISCID=8209f90c
DTITLE=Cathedral Quartet - Some of Their Finest Moments
DYEAR=1900
DGENRE=
TTITLE0=I've Read The Back Of The Book
TTITLE1=Crimson River
TTITLE2=Climbing Higher And Higher
TTITLE3=In The Depths Of The Sea
TTITLE4=I Can See The Hand
TTITLE5=O, What A Savior
TTITLE6=I've Just Started Living
TTITLE7=Life Will Be Sweeter
TTITLE8=Don't It Make You Wanna To Go Home
TTITLE9=Wedding Music
TTITLE10=Goin' In Style
TTITLE11=Daystar
EXTD=
EXTT0=
EXTT1=
EXTT2=
EXTT3=
EXTT4=
EXTT5=
EXTT6=
EXTT7=
EXTT8=
EXTT9=
EXTT10=
EXTT11=
PLAYORDER=
